<svg width="16" height="16" viewBox="0 0 16 16" fill="none" xmlns="http://www.w3.org/2000/svg">
<circle cx="8" cy="8" r="8" fill="#C3625E"/>
<path d="M5.62458 4.26502C5.45139 4.09592 5.22172 4.00151 4.98284 4.0012V4C4.79727 4.00123 4.61628 4.05928 4.46296 4.16673C4.30965 4.27418 4.19098 4.42616 4.1221 4.60325C4.05323 4.78034 4.03727 4.97452 4.07628 5.16098C4.11529 5.34743 4.20749 5.51771 4.3411 5.65006L6.7202 7.97524L4.3411 10.2992C4.24192 10.3829 4.1606 10.4867 4.10221 10.6042C4.04383 10.7216 4.00963 10.8502 4.00176 10.9818C3.99389 11.1135 4.01251 11.2454 4.05646 11.3693C4.10042 11.4932 4.16876 11.6064 4.25722 11.702C4.34568 11.7975 4.45236 11.8733 4.5706 11.9246C4.68883 11.9758 4.81608 12.0015 4.9444 11.9999C5.07272 11.9984 5.19934 11.9697 5.31637 11.9156C5.4334 11.8614 5.53832 11.7831 5.62458 11.6855L7.9888 9.37502L10.4122 11.7345C10.5873 11.9047 10.8194 11.9997 11.0608 12C11.1884 11.9995 11.3146 11.9725 11.4317 11.9207C11.5489 11.8688 11.6546 11.7932 11.7423 11.6983C11.9136 11.5128 12.0061 11.2655 11.9997 11.0104C11.9933 10.7553 11.8884 10.5132 11.7081 10.337L9.3051 7.99818L11.7081 5.65936C11.8884 5.48313 11.9933 5.24102 11.9997 4.98593C12.0061 4.73085 11.9136 4.48354 11.7423 4.29807C11.57 4.11369 11.3334 4.00663 11.0841 4.0003C10.8349 3.99397 10.5933 4.08888 10.4122 4.26428L8.01356 6.59965L5.62458 4.26502Z" fill="white"/>
</svg>
