<svg width="16" height="16" viewBox="0 0 16 16" fill="none" xmlns="http://www.w3.org/2000/svg">
<circle cx="8" cy="8" r="8" fill="#27AA78"/>
<path d="M6.36321 12H6.29542C6.16303 11.9912 6.03427 11.9561 5.91623 11.8968C5.79818 11.8376 5.69353 11.7553 5.60906 11.6553L3.22265 8.83049C3.05783 8.63531 2.97984 8.38411 3.00446 8.13215C3.02907 7.8802 3.15436 7.64816 3.354 7.48702C3.45288 7.40706 3.5671 7.34689 3.68977 7.31007C3.81243 7.27324 3.94123 7.26048 4.06896 7.2724C4.1967 7.28432 4.32106 7.32074 4.43439 7.37958C4.54772 7.43842 4.64828 7.5185 4.72991 7.61529L6.4596 9.66397L11.3627 5.25169C11.5532 5.08055 11.8054 4.99029 12.0639 5.00083C12.3224 5.01137 12.5665 5.12181 12.7418 5.30786C12.8286 5.4001 12.8957 5.50819 12.9399 5.6259C12.984 5.74362 13.0045 5.86865 12.9992 5.99391C12.9938 6.11916 12.9631 6.24224 12.9091 6.35595C12.8552 6.46967 12.779 6.57179 12.6846 6.65665L7.02098 11.7466C6.84167 11.9086 6.60737 11.999 6.36321 12Z" fill="white"/>
</svg>
