<svg width="30" height="25" viewBox="0 0 30 25" fill="none" xmlns="http://www.w3.org/2000/svg">
<path d="M16.7063 0.86763C14.1478 0.867642 8.36745 2.53704 8.08949 9.44653C8.08949 14.5289 3.79652 17.0361 1.65003 17.6545C1.17132 17.7627 0.417735 18.2388 1.23309 19.2775C5.35619 25.0277 14.0288 24.8237 17.8739 22.9688C21.7191 21.1139 26.5276 16.5415 25.1378 9.07556C23.748 1.6096 19.3101 0.867617 16.7063 0.86763Z" fill="#0075FF"/>
<path fill-rule="evenodd" clip-rule="evenodd" d="M8.86245 9.45271C8.85778 12.2413 7.67118 14.3327 6.2078 15.7941C4.75659 17.2433 3.02004 18.0898 1.83079 18.4324L1.80872 18.4388L1.78632 18.4439C1.73805 18.4548 1.68248 18.4759 1.63924 18.5022C1.63663 18.5038 1.63417 18.5053 1.63186 18.5068C1.64927 18.5587 1.69552 18.6595 1.81527 18.8121L1.82588 18.8257L1.83588 18.8396C3.73999 21.4957 6.71996 22.8129 9.75338 23.2309C12.7998 23.6507 15.7784 23.1447 17.5452 22.2922C21.2229 20.5177 25.7026 16.2155 24.3986 9.20886C23.7295 5.61332 22.3545 3.76181 20.952 2.78622C19.5311 1.79787 17.956 1.61891 16.7168 1.61892C15.5684 1.61892 13.6443 2.00216 11.9945 3.17675C10.3841 4.32337 8.99549 6.24827 8.86245 9.45271ZM11.0788 1.88745C13.0399 0.49119 15.2985 0.0368568 16.7168 0.03685C18.0897 0.0368433 20.0468 0.230147 21.8536 1.48694C23.6787 2.7565 25.227 5.02304 25.952 8.91905C27.4366 16.8955 22.2684 21.7694 18.2312 23.7174C16.1405 24.7262 12.8401 25.2532 9.53793 24.7982C6.22745 24.342 2.79416 22.8801 0.561704 19.7754C0.0564574 19.1247 -0.134852 18.3989 0.226439 17.7509C0.523193 17.2186 1.07073 16.989 1.41219 16.9067C2.37683 16.6251 3.85926 15.9049 5.0919 14.6739C6.31733 13.4502 7.2823 11.7392 7.2823 9.43619V9.42027L7.28294 9.40437C7.43254 5.68481 9.08096 3.30987 11.0788 1.88745Z" fill="black"/>
<path d="M27.5564 7.78287C27.8156 8.75029 26.5655 9.92582 24.7641 10.4085C22.9627 10.8912 21.2922 10.4982 21.033 9.53082C20.7738 8.5634 22.024 7.38787 23.8254 6.90519C25.6268 6.42251 27.2972 6.81546 27.5564 7.78287Z" fill="#FEDA43"/>
<path fill-rule="evenodd" clip-rule="evenodd" d="M28.0117 10.424C27.2824 11.1098 26.2733 11.6336 25.172 11.9287C24.0706 12.2238 22.9348 12.2747 21.9603 12.0455C21.0577 11.8332 19.865 11.2512 19.5132 9.93806C19.1613 8.62496 19.9032 7.52459 20.5787 6.88939C21.3081 6.2036 22.3172 5.67977 23.4185 5.38468C24.5198 5.08958 25.6556 5.03868 26.6302 5.26792C27.5328 5.48025 28.7255 6.06225 29.0773 7.37535C29.4292 8.68846 28.6873 9.78883 28.0117 10.424ZM24.7646 10.4084C26.566 9.92568 27.8162 8.75015 27.5569 7.78274C27.2977 6.81532 25.6273 6.42237 23.8259 6.90505C22.0245 7.38773 20.7743 8.56327 21.0335 9.53068C21.2927 10.4981 22.9632 10.891 24.7646 10.4084Z" fill="black"/>
<path d="M18.8337 6.18531C18.6904 7.0168 17.9003 7.57475 17.0688 7.43152C16.2373 7.2883 15.6794 6.49814 15.8226 5.66665C15.9658 4.83516 16.756 4.27721 17.5875 4.42043C18.4189 4.56366 18.9769 5.35382 18.8337 6.18531Z" fill="black"/>
<path d="M13.913 14.2193C14.7541 11.6169 13.2658 9.30106 10.5469 8.7163C10.055 8.58451 8.6888 8.49641 7.15874 9.19836C5.62868 9.90031 3.95038 9.66468 3.30248 9.45912C2.92584 9.37418 2.22717 9.42981 2.44558 10.3318C3.3324 14.3558 4.68232 15.8977 7.00185 16.846C9.72327 17.9586 12.9825 17.0983 13.913 14.2193Z" fill="#0075FF"/>
<path fill-rule="evenodd" clip-rule="evenodd" d="M12.8938 11.1261C12.4139 10.3532 11.5574 9.73901 10.3789 9.48554L10.3597 9.4814L10.3407 9.47631C10.0243 9.39155 8.84632 9.2887 7.48442 9.91351C5.84184 10.6671 4.08627 10.4845 3.23307 10.2586C3.66108 12.1643 4.18239 13.4089 4.81866 14.2768C5.45143 15.1398 6.23735 15.684 7.29718 16.1173C9.75126 17.1206 12.4193 16.2741 13.1617 13.9771C13.5162 12.8801 13.37 11.8931 12.8938 11.1261ZM14.2311 10.2959C14.9685 11.4837 15.1459 12.9558 14.6594 14.4612C13.5408 17.9221 9.6903 18.7962 6.70153 17.5743C5.44183 17.0593 4.39303 16.3583 3.54925 15.2074C2.7206 14.0771 2.13073 12.5683 1.67612 10.5083C1.60198 10.1976 1.58519 9.87505 1.68039 9.56903C1.78224 9.24164 1.99188 9.00049 2.24508 8.84938C2.69328 8.5819 3.20389 8.6305 3.47313 8.69123L3.50593 8.69862L3.53799 8.70879C4.06487 8.87596 5.52973 9.07852 6.82808 8.48287C8.50911 7.71166 10.0493 7.77572 10.7275 7.95054C12.2598 8.28442 13.5002 9.11868 14.2311 10.2959Z" fill="black"/>
</svg>
