<svg width="14" height="16" viewBox="0 0 14 16" fill="none" xmlns="http://www.w3.org/2000/svg">
<path fill-rule="evenodd" clip-rule="evenodd" d="M7.00007 0C6.44778 0 6.00007 0.447716 6.00007 1V7C6.00007 7.55229 6.44778 8 7.00007 8C7.55235 8 8.00007 7.55229 8.00007 7V1C8.00007 0.447716 7.55235 0 7.00007 0ZM4.19475 13.1391C3.31617 12.5436 2.64987 11.684 2.2923 10.6847C1.93472 9.68537 1.90443 8.59819 2.20579 7.5805C2.50715 6.56282 3.12453 5.66743 3.96858 5.02394L2.75602 3.43345C1.57435 4.33433 0.710006 5.58787 0.2881 7.01263C-0.133806 8.43739 -0.091387 9.95944 0.409217 11.3585C0.90982 12.7575 1.84264 13.961 3.07265 14.7947C4.30266 15.6283 5.76605 16.049 7.25101 15.9957C8.73596 15.9424 10.1654 15.418 11.3325 14.4983C12.4996 13.5786 13.3438 12.3114 13.7429 10.8801C14.1419 9.44874 14.0751 7.92756 13.5522 6.5367C13.0293 5.14584 12.0773 3.95747 10.8341 3.1436L9.73865 4.81691C10.6266 5.39825 11.3066 6.24709 11.6801 7.24055C12.0537 8.23402 12.1014 9.32058 11.8163 10.343C11.5313 11.3653 10.9283 12.2705 10.0947 12.9274C9.26103 13.5843 8.23997 13.9589 7.17929 13.997C6.11861 14.035 5.07333 13.7346 4.19475 13.1391Z" fill="white"/>
</svg>
